<svg xmlns="http://www.w3.org/2000/svg" viewBox="0 0 48 64" width="48" height="64">
  <!-- Skis (vertical, pointing down) -->
  <rect x="16" y="48" width="4" height="16" rx="2" fill="#1a5c1a"/>
  <rect x="17" y="50" width="2" height="12" rx="1" fill="#2d8a2d"/>
  <rect x="28" y="48" width="4" height="16" rx="2" fill="#1a5c1a"/>
  <rect x="29" y="50" width="2" height="12" rx="1" fill="#2d8a2d"/>

  <!-- Ski poles (angled back) -->
  <line x1="10" y1="22" x2="6" y2="54" stroke="#444" stroke-width="2" stroke-linecap="round"/>
  <line x1="38" y1="22" x2="42" y2="54" stroke="#444" stroke-width="2" stroke-linecap="round"/>
  <circle cx="6" cy="54" r="3" fill="#444"/>
  <circle cx="42" cy="54" r="3" fill="#444"/>

  <!-- Legs (adjusted for ski position) -->
  <rect x="17" y="38" width="5" height="12" rx="2" fill="#2563eb"/>
  <rect x="26" y="38" width="5" height="12" rx="2" fill="#2563eb"/>

  <!-- Body/Jacket -->
  <ellipse cx="24" cy="32" rx="10" ry="12" fill="#dc2626"/>
  <ellipse cx="24" cy="30" rx="8" ry="8" fill="#ef4444"/>

  <!-- Arms (slightly back for downhill tuck) -->
  <rect x="4" y="26" width="12" height="5" rx="2" fill="#dc2626"/>
  <rect x="32" y="26" width="12" height="5" rx="2" fill="#dc2626"/>

  <!-- Head -->
  <circle cx="24" cy="14" r="10" fill="#fcd34d"/>

  <!-- Helmet/Hat -->
  <ellipse cx="24" cy="10" rx="10" ry="6" fill="#1e40af"/>
  <rect x="14" y="8" width="20" height="6" rx="2" fill="#1e40af"/>

  <!-- Goggles -->
  <rect x="16" y="12" width="16" height="5" rx="2" fill="#333"/>
  <rect x="17" y="13" width="6" height="3" rx="1" fill="#60a5fa"/>
  <rect x="25" y="13" width="6" height="3" rx="1" fill="#60a5fa"/>

  <!-- Face -->
  <ellipse cx="24" cy="19" rx="4" ry="2" fill="#fbbf24"/>
</svg>
