<svg xmlns="http://www.w3.org/2000/svg" viewBox="0 0 32 32" width="32" height="32">
  <!-- Shield shape -->
  <path d="M16 2 L28 8 L28 16 C28 24 16 30 16 30 C16 30 4 24 4 16 L4 8 Z" fill="#4488ff"/>
  <path d="M16 4 L26 9 L26 16 C26 22 16 28 16 28 C16 28 6 22 6 16 L6 9 Z" fill="#66aaff"/>

  <!-- Inner highlight -->
  <path d="M16 6 L24 10 L24 15 C24 20 16 25 16 25" fill="none" stroke="#99ccff" stroke-width="2" opacity="0.6"/>

  <!-- Star emblem -->
  <polygon points="16,10 17.5,14 22,14 18.5,17 20,22 16,19 12,22 13.5,17 10,14 14.5,14" fill="#ffffff"/>

  <!-- Shine -->
  <ellipse cx="11" cy="12" rx="2" ry="3" fill="#ffffff" opacity="0.4"/>
</svg>
