<svg xmlns="http://www.w3.org/2000/svg" viewBox="0 0 40 60" width="40" height="60">
  <!-- Tree trunk -->
  <rect x="16" y="45" width="8" height="15" fill="#8B4513"/>
  <!-- Snow on ground -->
  <ellipse cx="20" cy="58" rx="12" ry="4" fill="#e8e8e8"/>
  <!-- Tree layers -->
  <polygon points="20,0 35,20 28,18 38,35 25,32 32,45 8,45 15,32 2,35 12,18 5,20" fill="#2d5a27"/>
  <!-- Snow on tree -->
  <polygon points="20,0 25,8 15,8" fill="#fff"/>
  <polygon points="12,18 20,10 28,18 24,17 20,12 16,17" fill="#fff" opacity="0.8"/>
  <polygon points="8,35 20,22 32,35 26,33 20,26 14,33" fill="#fff" opacity="0.6"/>
</svg>
