<svg xmlns="http://www.w3.org/2000/svg" viewBox="0 0 64 64" width="64" height="64">
  <!-- Shadow/Base -->
  <ellipse cx="32" cy="60" rx="24" ry="4" fill="#1a1a2a" opacity="0.4"/>

  <!-- Massive Body -->
  <rect x="12" y="28" width="40" height="30" rx="4" fill="#6a4a8a"/>
  <rect x="16" y="32" width="32" height="22" rx="2" fill="#7a5a9a"/>

  <!-- Chest muscles/details -->
  <ellipse cx="24" cy="40" rx="6" ry="8" fill="#8a6aaa" opacity="0.6"/>
  <ellipse cx="40" cy="40" rx="6" ry="8" fill="#8a6aaa" opacity="0.6"/>

  <!-- Belt/waist -->
  <rect x="14" y="50" width="36" height="6" fill="#4a3a5a"/>
  <rect x="28" y="49" width="8" height="8" rx="1" fill="#ffd700"/>

  <!-- Huge Head -->
  <rect x="10" y="4" width="44" height="26" rx="5" fill="#8a6aaa"/>
  <rect x="14" y="8" width="36" height="18" rx="3" fill="#9a7aba"/>

  <!-- Angry Eyes -->
  <rect x="16" y="12" width="12" height="8" rx="1" fill="#ff0000"/>
  <rect x="36" y="12" width="12" height="8" rx="1" fill="#ff0000"/>
  <rect x="18" y="14" width="4" height="4" fill="#ffff00"/>
  <rect x="42" y="14" width="4" height="4" fill="#ffff00"/>

  <!-- Angry eyebrows -->
  <polygon points="14,10 30,8 30,12 14,14" fill="#4a3a5a"/>
  <polygon points="50,10 34,8 34,12 50,14" fill="#4a3a5a"/>

  <!-- Mouth with fangs -->
  <rect x="20" y="22" width="24" height="6" rx="1" fill="#2d2d2d"/>
  <polygon points="22,22 26,22 24,28" fill="#ffffff"/>
  <polygon points="30,22 34,22 32,28" fill="#ffffff"/>
  <polygon points="38,22 42,22 40,28" fill="#ffffff"/>

  <!-- Massive Arms -->
  <rect x="0" y="30" width="14" height="20" rx="3" fill="#8a6aaa"/>
  <rect x="50" y="30" width="14" height="20" rx="3" fill="#8a6aaa"/>
  <rect x="2" y="32" width="10" height="16" rx="2" fill="#9a7aba"/>
  <rect x="52" y="32" width="10" height="16" rx="2" fill="#9a7aba"/>

  <!-- Fists -->
  <rect x="0" y="48" width="14" height="10" rx="3" fill="#7a5a9a"/>
  <rect x="50" y="48" width="14" height="10" rx="3" fill="#7a5a9a"/>

  <!-- Spikes on shoulders -->
  <polygon points="8,28 12,28 10,20" fill="#5a3a7a"/>
  <polygon points="52,28 56,28 54,20" fill="#5a3a7a"/>

  <!-- Neck bolts (Frankenstein style) -->
  <rect x="6" y="26" width="6" height="4" rx="1" fill="#666"/>
  <rect x="52" y="26" width="6" height="4" rx="1" fill="#666"/>
</svg>
