<svg xmlns="http://www.w3.org/2000/svg" viewBox="0 0 48 64" width="48" height="64">
  <!-- Skis -->
  <rect x="8" y="54" width="32" height="4" rx="2" fill="#1a5c1a"/>
  <rect x="10" y="55" width="28" height="2" rx="1" fill="#2d8a2d"/>

  <!-- Ski poles -->
  <line x1="8" y1="20" x2="4" y2="52" stroke="#444" stroke-width="2" stroke-linecap="round"/>
  <line x1="40" y1="20" x2="44" y2="52" stroke="#444" stroke-width="2" stroke-linecap="round"/>
  <circle cx="4" cy="52" r="3" fill="#444"/>
  <circle cx="44" cy="52" r="3" fill="#444"/>

  <!-- Legs -->
  <rect x="18" y="38" width="5" height="16" rx="2" fill="#2563eb"/>
  <rect x="25" y="38" width="5" height="16" rx="2" fill="#2563eb"/>

  <!-- Body/Jacket -->
  <ellipse cx="24" cy="32" rx="10" ry="12" fill="#dc2626"/>
  <ellipse cx="24" cy="30" rx="8" ry="8" fill="#ef4444"/>

  <!-- Arms -->
  <rect x="6" y="24" width="12" height="5" rx="2" fill="#dc2626"/>
  <rect x="30" y="24" width="12" height="5" rx="2" fill="#dc2626"/>

  <!-- Head -->
  <circle cx="24" cy="14" r="10" fill="#fcd34d"/>

  <!-- Helmet/Hat -->
  <ellipse cx="24" cy="10" rx="10" ry="6" fill="#1e40af"/>
  <rect x="14" y="8" width="20" height="6" rx="2" fill="#1e40af"/>

  <!-- Goggles -->
  <rect x="16" y="12" width="16" height="5" rx="2" fill="#333"/>
  <rect x="17" y="13" width="6" height="3" rx="1" fill="#60a5fa"/>
  <rect x="25" y="13" width="6" height="3" rx="1" fill="#60a5fa"/>

  <!-- Face -->
  <ellipse cx="24" cy="19" rx="4" ry="2" fill="#fbbf24"/>
</svg>
