<svg xmlns="http://www.w3.org/2000/svg" viewBox="0 0 40 48" width="40" height="48">
  <!-- Treads/Base -->
  <rect x="4" y="38" width="12" height="8" rx="2" fill="#333"/>
  <rect x="24" y="38" width="12" height="8" rx="2" fill="#333"/>
  <rect x="6" y="40" width="8" height="4" fill="#555"/>
  <rect x="26" y="40" width="8" height="4" fill="#555"/>

  <!-- Body -->
  <rect x="6" y="18" width="28" height="22" rx="3" fill="#666"/>
  <rect x="8" y="20" width="24" height="18" rx="2" fill="#888"/>

  <!-- Chest panel -->
  <rect x="12" y="24" width="16" height="10" rx="1" fill="#444"/>
  <circle cx="16" cy="28" r="2" fill="#ff0000"/>
  <circle cx="24" cy="28" r="2" fill="#ff0000"/>
  <rect x="14" y="30" width="12" height="2" fill="#ff4444"/>

  <!-- Head -->
  <rect x="10" y="4" width="20" height="16" rx="3" fill="#777"/>
  <rect x="12" y="6" width="16" height="12" rx="2" fill="#999"/>

  <!-- Eyes (menacing) -->
  <rect x="13" y="8" width="6" height="4" fill="#ff0000"/>
  <rect x="21" y="8" width="6" height="4" fill="#ff0000"/>
  <rect x="14" y="9" width="2" height="2" fill="#ffff00"/>
  <rect x="24" y="9" width="2" height="2" fill="#ffff00"/>

  <!-- Antenna -->
  <rect x="19" y="0" width="2" height="6" fill="#555"/>
  <circle cx="20" cy="0" r="2" fill="#ff0000"/>

  <!-- Arms -->
  <rect x="0" y="22" width="6" height="14" rx="2" fill="#666"/>
  <rect x="34" y="22" width="6" height="14" rx="2" fill="#666"/>
  <circle cx="3" cy="36" r="3" fill="#555"/>
  <circle cx="37" cy="36" r="3" fill="#555"/>
</svg>
